<?xml version="1.0" standalone="no"?>
<!DOCTYPE svg PUBLIC "-//W3C//DTD SVG 20010904//EN"
 "http://www.w3.org/TR/2001/REC-SVG-20010904/DTD/svg10.dtd">
<svg version="1.0" xmlns="http://www.w3.org/2000/svg"
 width="591.000000pt" height="996.000000pt" viewBox="0 0 591.000000 996.000000"
 preserveAspectRatio="xMidYMid meet">
<metadata>
Created by potrace 1.16, written by Peter Selinger 2001-2019
</metadata>
<g transform="translate(0.000000,996.000000) scale(0.100000,-0.100000)"
fill="#ffffff" stroke="none">
<path d="M2395 9732 c-6 -5 -30 -14 -55 -22 -25 -7 -70 -20 -100 -30 -30 -10
-71 -21 -90 -25 -19 -4 -39 -11 -45 -15 -5 -3 -39 -17 -75 -30 -92 -33 -244
-100 -340 -150 -112 -58 -160 -85 -205 -115 -27 -18 -77 -50 -110 -71 -107
-70 -271 -199 -386 -304 -9 -8 -21 -40 -28 -70 -6 -30 -21 -95 -32 -145 -72
-328 -72 -609 0 -970 43 -218 97 -427 127 -492 8 -17 14 -39 14 -48 0 -27 -85
-10 -131 26 -41 32 -104 121 -121 171 -6 18 -17 44 -25 58 -7 14 -13 32 -13
41 0 8 -4 19 -9 25 -23 25 -67 261 -82 447 -13 154 9 430 39 502 9 19 37 102
49 138 3 10 0 17 -9 17 -7 0 -19 -8 -26 -17 -139 -203 -204 -309 -265 -428
-24 -47 -34 -70 -86 -187 -12 -26 -21 -53 -21 -60 0 -7 -6 -25 -14 -40 -8 -15
-17 -41 -21 -59 -4 -19 -11 -40 -16 -49 -8 -13 -34 -119 -42 -170 -1 -8 16
-23 40 -35 79 -38 129 -102 168 -216 14 -41 19 -88 21 -195 3 -201 6 -211 109
-396 95 -171 363 -466 515 -567 54 -35 54 -36 26 -39 -93 -11 -193 53 -357
229 -200 215 -229 237 -332 260 -71 15 -123 58 -155 125 -13 27 -27 57 -32 66
-5 9 -14 56 -20 105 -7 48 -16 104 -21 124 -5 20 -9 55 -9 78 0 35 -3 42 -18
39 -16 -3 -17 -27 -20 -302 -1 -199 1 -303 8 -311 6 -7 19 -66 29 -132 11 -65
27 -143 36 -173 9 -30 23 -80 31 -110 8 -30 19 -64 24 -75 6 -11 21 -51 36
-90 37 -102 117 -265 129 -265 5 0 18 18 28 39 26 57 83 128 129 162 32 23 52
29 90 29 26 0 48 -4 48 -8 0 -4 15 -13 33 -20 45 -16 131 -100 276 -272 91
-108 245 -264 297 -302 49 -35 52 -55 16 -103 -42 -56 -175 -75 -278 -40 -25
8 -51 15 -59 15 -14 0 -40 11 -145 65 -30 15 -65 33 -77 39 -13 6 -23 14 -23
19 0 4 -5 7 -10 7 -12 0 -116 74 -143 102 -16 16 -57 26 -57 13 0 -13 153
-195 202 -240 101 -93 123 -111 288 -239 251 -195 401 -359 426 -464 4 -15 10
-31 14 -37 4 -5 13 -28 19 -50 7 -22 16 -49 21 -60 4 -11 18 -51 30 -90 22
-70 27 -82 73 -187 27 -61 33 -70 87 -126 54 -56 91 -72 170 -72 38 0 72 5 75
10 3 6 14 10 24 10 30 0 158 69 230 123 180 136 236 197 181 197 -11 0 -20 4
-20 9 0 5 -15 13 -32 16 -44 10 -261 107 -278 125 -3 3 -17 11 -32 17 -106 47
-313 219 -373 311 -30 45 -39 129 -19 165 10 17 13 15 28 -20 61 -132 92 -180
165 -251 60 -59 156 -115 226 -133 22 -6 78 -17 123 -24 173 -29 274 -91 336
-208 35 -66 35 -119 -1 -147 -24 -19 -37 -21 -85 -17 -32 3 -58 3 -58 1 0 -2
10 -22 21 -44 19 -36 21 -52 16 -133 -5 -87 -18 -140 -52 -214 -8 -17 -15 -34
-15 -38 0 -3 -18 -37 -40 -73 -40 -68 -65 -97 -111 -132 -15 -11 -30 -34 -34
-52 -13 -55 -17 -350 -6 -403 6 -27 15 -77 20 -110 18 -110 33 -165 46 -165
18 0 130 230 175 360 13 36 26 70 30 75 4 6 20 46 35 90 16 44 32 84 37 90 17
20 -1 -303 -23 -390 -6 -22 -14 -56 -19 -76 -5 -19 -16 -49 -25 -65 -8 -16
-15 -34 -15 -39 0 -32 -104 -140 -155 -160 -52 -22 -56 -38 -17 -81 59 -68
116 -155 165 -256 20 -42 37 -80 37 -83 0 -4 7 -21 15 -38 31 -65 72 -234 86
-352 23 -185 24 -190 39 -190 13 0 16 42 22 290 4 160 12 331 17 380 21 182
74 526 82 540 3 6 12 45 19 88 7 43 16 79 20 82 3 2 12 -118 19 -267 7 -149
16 -297 21 -327 5 -31 11 -155 15 -276 3 -121 10 -249 15 -285 5 -36 14 -236
20 -445 6 -209 15 -427 20 -485 5 -58 12 -243 16 -413 6 -248 10 -309 21 -319
11 -9 16 -9 22 1 5 7 11 151 15 319 4 169 11 352 16 407 5 55 14 271 20 480 6
209 15 412 20 450 5 39 12 169 15 290 4 121 10 245 15 276 5 30 14 178 21 327
7 149 16 269 19 267 4 -3 13 -39 20 -82 7 -43 16 -82 19 -88 8 -14 61 -358 82
-540 5 -49 13 -220 17 -380 6 -248 9 -290 22 -290 15 0 16 5 39 190 14 118 55
287 86 352 8 17 15 35 15 40 0 13 71 150 108 208 36 58 57 86 94 129 31 35 42
66 24 66 -28 0 -95 41 -127 78 -49 57 -69 85 -69 97 0 5 -7 23 -15 39 -9 16
-20 48 -26 70 -6 23 -14 57 -19 76 -21 82 -39 404 -22 385 5 -6 21 -46 37 -90
15 -44 31 -84 35 -90 4 -5 17 -39 30 -75 46 -132 157 -360 175 -360 7 0 17 14
20 32 4 18 11 39 16 48 8 15 18 67 40 220 14 95 5 322 -14 373 -10 27 -25 43
-53 57 -47 24 -116 87 -138 126 -9 16 -25 43 -35 59 -35 58 -61 162 -63 247
-2 87 5 109 49 161 28 35 22 50 -14 36 -39 -15 -80 -1 -108 35 -25 33 -35 99
-16 111 5 3 12 18 16 33 3 16 18 42 33 58 31 34 115 94 132 94 7 0 26 7 43 15
18 8 73 21 122 29 50 8 108 19 130 25 70 18 166 74 226 133 73 71 104 118 165
252 l18 40 14 -35 c19 -45 9 -112 -24 -164 -39 -60 -167 -179 -258 -239 -113
-74 -331 -184 -399 -201 -15 -4 -30 -11 -33 -16 -3 -5 -14 -9 -25 -9 -58 0 23
-76 176 -164 129 -75 190 -96 296 -103 202 -13 378 159 488 477 13 36 27 74
31 85 5 11 14 37 21 59 15 52 72 145 122 202 43 49 193 180 294 257 97 74 281
255 340 334 29 40 53 74 53 77 0 18 -39 -2 -120 -63 -97 -73 -291 -177 -350
-187 -19 -4 -40 -11 -46 -15 -6 -5 -47 -10 -90 -10 -62 -2 -88 2 -119 19 -46
23 -80 57 -90 90 -6 20 -3 22 32 22 62 1 153 69 253 191 25 30 47 56 51 59 3
3 34 41 68 85 144 183 224 255 298 270 72 15 150 -45 203 -153 14 -28 30 -51
35 -52 12 0 92 163 129 265 15 39 30 79 36 90 8 18 26 78 52 180 5 22 14 49
18 60 5 11 16 69 24 128 8 60 20 115 26 122 7 8 9 111 8 311 -3 268 -5 299
-19 302 -13 2 -18 -7 -22 -40 -25 -211 -45 -299 -87 -386 -27 -55 -77 -101
-119 -107 -142 -23 -167 -38 -296 -181 -134 -148 -240 -250 -290 -279 -39 -23
-155 -47 -155 -33 0 3 19 18 43 34 111 75 309 267 419 409 60 76 168 245 168
261 0 3 10 26 22 52 23 50 25 93 17 312 -3 92 -1 113 20 167 31 84 111 168
171 179 39 8 54 27 42 51 -6 10 -16 48 -22 83 -6 36 -15 70 -20 75 -4 6 -11
25 -15 43 -4 18 -13 45 -21 60 -8 15 -14 33 -14 40 0 7 -9 34 -21 60 -52 117
-62 140 -86 187 -61 119 -126 225 -265 428 -7 9 -19 17 -26 17 -9 0 -12 -7 -9
-17 12 -36 40 -119 49 -138 11 -28 27 -129 39 -263 12 -121 2 -287 -25 -452
-18 -109 -46 -222 -57 -234 -5 -6 -9 -17 -9 -25 0 -9 -6 -27 -13 -41 -8 -14
-19 -40 -25 -58 -17 -50 -80 -139 -121 -171 -46 -36 -131 -53 -131 -26 0 9 6
31 14 48 30 65 84 274 127 492 72 361 72 641 0 970 -47 213 -43 201 -86 237
-22 18 -60 51 -85 74 -104 93 -364 274 -495 344 -107 57 -129 68 -205 103
-106 50 -155 71 -230 97 -36 13 -69 27 -75 30 -5 4 -26 11 -45 15 -19 4 -60
15 -90 25 -30 10 -75 23 -100 30 -25 8 -49 17 -55 22 -12 11 -115 10 -115 0 0
-5 17 -17 38 -28 20 -10 39 -21 42 -24 3 -3 16 -11 30 -18 14 -7 43 -23 65
-37 22 -14 50 -31 63 -37 12 -6 22 -15 22 -20 0 -4 5 -8 10 -8 15 0 138 -87
250 -177 69 -56 224 -210 280 -278 217 -265 324 -554 325 -875 0 -135 -27
-365 -46 -384 -5 -6 -9 -20 -9 -32 0 -21 -41 -165 -60 -209 -5 -11 -14 -37
-20 -57 -14 -46 -37 -66 -25 -22 14 50 17 425 5 470 -9 32 -27 54 -83 101 -63
53 -217 166 -272 200 -66 40 -126 73 -135 73 -5 0 -10 5 -10 10 0 6 -5 10 -11
10 -5 0 -43 15 -82 34 -95 46 -167 76 -179 76 -6 0 -24 6 -41 14 -39 16 -159
52 -207 62 -19 3 -42 11 -52 17 -9 6 -20 8 -23 5 -15 -15 9 -45 54 -66 120
-56 344 -224 447 -335 106 -112 195 -254 239 -377 65 -180 66 -435 1 -661 -17
-59 -79 -221 -96 -251 -15 -26 -14 -27 33 -47 86 -37 117 -108 98 -223 -11
-67 -98 -241 -133 -268 -4 -3 -11 -17 -17 -32 -8 -21 -6 -30 9 -46 51 -55 88
-241 76 -387 -12 -142 -41 -223 -101 -282 -24 -24 -52 -43 -63 -43 -12 0 -24
-4 -27 -10 -3 -5 -13 -10 -22 -10 -8 0 -30 -7 -49 -16 -29 -14 -32 -19 -27
-46 5 -24 2 -30 -17 -35 -51 -13 -106 -51 -123 -84 l-19 -34 6 40 c3 22 9 70
12 106 l7 67 48 6 c27 4 49 11 49 16 0 6 6 10 14 10 45 0 172 186 191 280 4
19 12 41 19 49 16 20 15 300 -1 332 -7 13 -17 36 -23 52 -5 15 -16 27 -25 27
-12 0 -15 -13 -15 -59 0 -73 -26 -226 -45 -268 -8 -17 -15 -34 -15 -38 0 -15
-61 -93 -86 -110 -21 -13 -45 -17 -108 -16 l-82 2 -46 -51 c-27 -29 -55 -50
-67 -50 -25 0 -25 0 -6 -36 10 -19 15 -58 15 -110 0 -77 -10 -128 -48 -234
l-16 -45 -8 35 c-18 73 -52 167 -78 210 -46 79 -60 139 -60 259 l0 111 48 -33
c26 -17 49 -35 52 -38 11 -14 91 -29 117 -23 47 12 122 67 123 90 0 6 -28 10
-76 10 -64 -1 -78 2 -90 19 -15 19 -13 20 55 26 60 6 74 11 105 40 44 40 48
64 9 54 -45 -12 -137 -13 -155 -1 -26 16 -22 35 10 41 44 10 92 37 118 68 27
32 32 67 9 67 -8 0 -15 -4 -15 -8 0 -7 -42 -33 -60 -37 -3 0 -17 -4 -32 -8
-40 -11 -71 6 -111 61 -42 56 -119 113 -204 150 -48 21 -77 26 -167 28 -60 1
-112 7 -115 13 -15 24 -118 54 -191 55 -64 1 -80 -3 -112 -24 -54 -36 -49 -50
15 -50 l54 0 41 -83 c22 -45 64 -113 93 -151 81 -107 90 -140 96 -356 4 -116
1 -215 -6 -265 -20 -142 -54 -297 -86 -393 -7 -22 -8 -22 -32 14 -36 53 -87
160 -109 229 -23 72 -27 266 -6 287 18 18 15 28 -9 28 -12 0 -40 21 -67 50
l-46 51 -82 -2 c-63 -1 -87 3 -108 16 -31 20 -79 87 -91 125 -4 14 -11 30 -16
36 -12 15 -39 190 -39 257 0 44 -3 57 -15 57 -9 0 -20 -12 -25 -27 -6 -16 -16
-39 -23 -52 -16 -31 -17 -312 -1 -332 6 -8 14 -30 17 -49 16 -88 148 -280 193
-280 7 0 14 -4 14 -10 0 -5 22 -12 49 -16 l48 -6 7 -67 c3 -36 9 -84 12 -106
l6 -40 -19 34 c-17 33 -72 71 -123 84 -19 5 -22 11 -17 34 7 35 -3 42 -88 68
-96 29 -135 78 -168 210 -42 168 -19 427 44 517 17 23 18 31 8 50 -7 13 -15
25 -18 28 -36 30 -121 202 -132 268 -19 115 12 186 98 223 47 20 48 21 33 47
-17 30 -79 192 -96 251 -65 227 -65 480 1 661 24 69 83 178 133 250 111 157
319 334 535 455 66 36 87 58 73 73 -4 3 -15 1 -24 -5 -10 -6 -33 -14 -52 -17
-48 -10 -168 -46 -207 -62 -17 -8 -35 -14 -41 -14 -12 0 -84 -30 -179 -76 -39
-19 -77 -34 -82 -34 -6 0 -11 -4 -11 -10 0 -5 -5 -10 -10 -10 -9 0 -69 -33
-135 -73 -55 -34 -209 -147 -272 -200 -56 -47 -74 -69 -83 -101 -12 -45 -9
-420 5 -470 12 -44 -11 -24 -25 22 -6 20 -15 46 -20 57 -19 44 -60 188 -60
209 0 12 -4 26 -9 32 -19 19 -46 249 -46 384 1 321 108 610 325 875 56 68 211
222 280 278 112 90 235 177 250 177 5 0 10 4 10 8 0 5 10 14 23 20 12 6 40 23
62 37 22 14 51 30 65 37 14 7 27 15 30 18 3 3 22 14 43 24 20 11 37 23 37 28
0 10 -103 11 -115 0z"/>
</g>
</svg>
